<?xml version="1.0" ?><svg id="Layer_1" style="enable-background:new 0 0 512 512;" version="1.1" viewBox="0 0 512 512" xml:space="preserve" xmlns="http://www.w3.org/2000/svg" xmlns:xlink="http://www.w3.org/1999/xlink"><style type="text/css">
	.st0{fill:url(#SVGID_1_);}
	.st1{fill:url(#SVGID_2_);}
	.st2{fill:url(#SVGID_3_);}
	.st3{fill:#E2E1E1;}
	.st4{fill:url(#SVGID_4_);}
	.st5{fill:url(#SVGID_5_);}
	.st6{fill:url(#SVGID_6_);}
	.st7{fill:url(#SVGID_7_);}
	.st8{fill:url(#SVGID_8_);}
	.st9{fill:url(#SVGID_9_);}
	.st10{fill:#FFFFFF;}
	.st11{fill:#EC657D;}
	.st12{fill:url(#SVGID_10_);}
	.st13{fill:url(#SVGID_11_);}
	.st14{fill:url(#SVGID_12_);}
	.st15{fill:url(#SVGID_13_);}
	.st16{fill:url(#SVGID_14_);}
	.st17{fill:url(#SVGID_15_);}
	.st18{fill:url(#SVGID_16_);}
	.st19{fill:url(#SVGID_17_);}
	.st20{fill:url(#SVGID_18_);}
	.st21{fill:url(#SVGID_19_);}
	.st22{fill:url(#SVGID_20_);}
	.st23{fill:url(#SVGID_21_);}
	.st24{fill:url(#SVGID_22_);}
	.st25{fill:url(#SVGID_23_);}
	.st26{fill:url(#SVGID_24_);}
	.st27{fill:url(#SVGID_25_);}
	.st28{fill:url(#SVGID_26_);}
	.st29{fill:url(#SVGID_27_);}
	.st30{fill:url(#SVGID_28_);}
	.st31{fill:url(#SVGID_29_);}
	.st32{opacity:0.25;fill:url(#SVGID_30_);}
	.st33{fill:#FBCFAF;}
	.st34{opacity:0.25;fill:url(#SVGID_31_);}
	.st35{opacity:0.25;fill:url(#SVGID_32_);}
	.st36{fill:url(#SVGID_33_);}
	.st37{fill:url(#SVGID_34_);}
	.st38{fill:#E65892;}
	.st39{fill:url(#SVGID_35_);}
	.st40{fill:url(#SVGID_36_);}
	.st41{fill:url(#SVGID_37_);}
	.st42{fill:url(#SVGID_38_);}
	.st43{fill:url(#SVGID_39_);}
	.st44{fill:#D7DDE9;}
	.st45{fill:#345185;}
	.st46{fill:#F6AD86;}
	.st47{fill:#E07125;}
	.st48{fill:#ED8C61;}
	.st49{fill:#37B8BA;}
	.st50{fill:#4FBECB;}
	.st51{fill:#234063;}
	.st52{fill:#6F95C1;}
	.st53{fill:#FFE1AB;}
	.st54{fill:#98D5E9;}
	.st55{fill:url(#SVGID_40_);}
	.st56{opacity:0.4;fill:url(#SVGID_41_);}
	.st57{fill:#7D7D7D;}
	.st58{fill:#FFF5C5;}
	.st59{fill:url(#SVGID_42_);}
	.st60{opacity:0.4;fill:#75589F;}
	.st61{fill:url(#SVGID_43_);}
	.st62{opacity:0.45;fill:url(#SVGID_44_);}
	.st63{fill:#F3CFB6;}
	.st64{fill:#E5BDA9;}
	.st65{fill:#FDE7DD;}
	.st66{fill:url(#SVGID_45_);}
</style><g><g><linearGradient gradientUnits="userSpaceOnUse" id="SVGID_1_" x1="68.5484" x2="452.7106" y1="257.3052" y2="257.3052"><stop offset="0" style="stop-color:#C3A0CB"/><stop offset="1" style="stop-color:#7BC4A8"/></linearGradient><path class="st0" d="M423.1,348c-34.1,74.9-95,132.9-194.9,132.9S48.4,408.1,73.1,261.4c23.2-137.9,236-264.2,315.8-218    C475.3,93.5,460.5,265.9,423.1,348z"/><linearGradient gradientTransform="matrix(-0.8761 -0.4822 0.4822 -0.8761 2882.2693 1247.3004)" gradientUnits="userSpaceOnUse" id="SVGID_2_" x1="2551.7173" x2="2935.8708" y1="-400.8616" y2="-400.8616"><stop offset="0" style="stop-color:#C3A0CB"/><stop offset="1" style="stop-color:#7BC4A8"/></linearGradient><path class="st1" d="M186.6,117.7c66-49.2,147.3-70.6,234.8-22.4c87.5,48.2,122.4,150.5,30.1,267.1    C364.6,471.9,117.2,480,69.6,400.9C18.1,315.4,114.2,171.6,186.6,117.7z"/></g><g><g><linearGradient gradientUnits="userSpaceOnUse" id="SVGID_3_" x1="178.5841" x2="425.3603" y1="273.3231" y2="273.3231"><stop offset="0" style="stop-color:#F1A1C6"/><stop offset="1" style="stop-color:#B8A3CF"/></linearGradient><polygon class="st2" points="425.4,232.1 178.6,89.6 178.6,314.6 425.4,457    "/><polygon class="st3" points="178.6,89.6 191.6,82.1 438.3,224.6 425.4,232.1    "/><linearGradient gradientUnits="userSpaceOnUse" id="SVGID_4_" x1="431.8544" x2="431.8544" y1="457.0279" y2="224.5957"><stop offset="0" style="stop-color:#A189BF"/><stop offset="1" style="stop-color:#E48DBB"/></linearGradient><polygon class="st4" points="438.3,224.6 438.3,449.5 425.4,457 425.4,232.1    "/></g><g><linearGradient gradientUnits="userSpaceOnUse" id="SVGID_5_" x1="178.5841" x2="425.3603" y1="143.2941" y2="143.2941"><stop offset="0" style="stop-color:#ED7BAE"/><stop offset="1" style="stop-color:#8062A8"/></linearGradient><polygon class="st5" points="425.4,196.6 178.6,54.1 178.6,90 425.4,232.5    "/><linearGradient gradientUnits="userSpaceOnUse" id="SVGID_6_" x1="178.5841" x2="425.3603" y1="273.3231" y2="273.3231"><stop offset="0" style="stop-color:#F1A1C6"/><stop offset="1" style="stop-color:#B8A3CF"/></linearGradient><polygon class="st6" points="425.4,232.1 178.6,89.6 178.6,314.6 425.4,457    "/><linearGradient gradientUnits="userSpaceOnUse" id="SVGID_7_" x1="178.5841" x2="425.3603" y1="143.2941" y2="143.2941"><stop offset="0" style="stop-color:#ED7BAE"/><stop offset="1" style="stop-color:#8062A8"/></linearGradient><polygon class="st7" points="425.4,196.6 178.6,54.1 178.6,90 425.4,232.5    "/><linearGradient gradientUnits="userSpaceOnUse" id="SVGID_8_" x1="178.5841" x2="438.3485" y1="121.5891" y2="121.5891"><stop offset="0" style="stop-color:#F3A6C9"/><stop offset="1" style="stop-color:#8E77B5"/></linearGradient><polygon class="st8" points="178.6,54.1 191.6,46.6 438.3,189.1 425.4,196.6    "/><linearGradient gradientUnits="userSpaceOnUse" id="SVGID_9_" x1="431.8544" x2="431.8544" y1="232.488" y2="189.0779"><stop offset="0" style="stop-color:#ED7BAE"/><stop offset="1" style="stop-color:#8062A8"/></linearGradient><polygon class="st9" points="438.3,189.1 438.3,225 425.4,232.5 425.4,196.6    "/></g><g><polygon class="st10" points="191.6,117.7 191.6,147.7 217.5,162.7 217.5,132.7    "/><polygon class="st10" points="224,136.5 224,166.5 250,181.5 250,151.5    "/><polygon class="st10" points="256.5,155.2 256.5,185.2 282.5,200.2 282.5,170.2    "/><polygon class="st10" points="289,174 289,204 315,219 315,189    "/><polygon class="st10" points="321.5,192.7 321.5,222.7 347.4,237.7 347.4,207.7    "/><polygon class="st10" points="353.9,211.5 353.9,241.4 379.9,256.4 379.9,226.4    "/><polygon class="st10" points="386.4,230.2 386.4,260.2 412.4,275.2 412.4,245.2    "/><polygon class="st10" points="191.6,157.5 191.6,187.5 217.5,202.5 217.5,172.5    "/><polygon class="st10" points="224,176.3 224,206.3 250,221.3 250,191.3    "/><polygon class="st10" points="256.5,195 256.5,225 282.5,240 282.5,210    "/><polygon class="st10" points="289,213.8 289,243.8 315,258.8 315,228.8    "/><polygon class="st10" points="321.5,232.5 321.5,262.5 347.4,277.5 347.4,247.5    "/><polygon class="st10" points="353.9,251.3 353.9,281.2 379.9,296.2 379.9,266.2    "/><path class="st11" d="M236.4,187.5c2.7,0.9,5,2.8,6.6,5.2c1.6,2.4,2.4,5.2,2.6,8c0.1,1.4,0.1,2.8-0.1,4.2c-0.2,1.4-0.7,3-1.8,4.2     c-1.1,1.2-2.6,1.9-4.1,2.1c-1.5,0.2-3,0.1-4.4-0.3c-2.8-0.7-5.4-2.4-7-4.9c-0.8-1.2-1.4-2.6-1.6-4c-0.1-0.7-0.3-1.4-0.4-2.1     c-0.1-0.7-0.1-1.4-0.1-2.1c0.1-1.4,0.3-2.9,0.8-4.2c0.3-0.7,0.7-1.4,1.2-2c0.5-0.6,1.1-1.1,1.9-1.4c0.7-0.4,1.7-0.5,2.4-0.3     c0.8,0.2,1.5,0.5,2.1,1c1.2,0.9,1.9,2.2,2.5,3.4c0,0,0,0.1,0,0.1c0,0,0,0-0.1,0c-1-0.9-1.9-1.9-3-2.4c-1.1-0.6-2.3-0.7-3.1-0.2     c-2,1.1-2.7,3.7-2.8,6.2c0,1.3,0.1,2.5,0.5,3.7c0.2,1.3,0.7,2.4,1.4,3.4c1.3,2,3.5,3.4,5.9,4c2.4,0.6,5.1,0.5,6.5-1.2     c1.5-1.6,1.5-4.4,1.4-6.9c-0.2-2.5-0.8-5.1-2.2-7.2c-1.3-2.1-3.3-3.9-5.6-4.8c-0.4-0.1-0.6-0.6-0.4-0.9     C235.7,187.6,236.1,187.4,236.4,187.5z"/><polygon class="st10" points="386.4,270 386.4,300 412.4,315 412.4,285    "/><polygon class="st10" points="191.6,197.3 191.6,227.3 217.5,242.3 217.5,212.3    "/><polygon class="st10" points="224,216.1 224,246.1 250,261.1 250,231.1    "/><polygon class="st10" points="256.5,234.8 256.5,264.8 282.5,279.8 282.5,249.8    "/><polygon class="st10" points="289,253.6 289,283.6 315,298.6 315,268.6    "/><polygon class="st10" points="321.5,272.3 321.5,302.3 347.4,317.3 347.4,287.3    "/><polygon class="st10" points="353.9,291 353.9,321 379.9,336 379.9,306    "/><polygon class="st10" points="386.4,309.8 386.4,339.8 412.4,354.8 412.4,324.8    "/><polygon class="st10" points="191.6,237.1 191.6,267.1 217.5,282.1 217.5,252.1    "/><polygon class="st10" points="224,255.9 224,285.9 250,300.9 250,270.9    "/><polygon class="st10" points="256.5,274.6 256.5,304.6 282.5,319.6 282.5,289.6    "/><polygon class="st10" points="289,293.4 289,323.4 315,338.4 315,308.4    "/><polygon class="st10" points="321.5,312.1 321.5,342.1 347.4,357.1 347.4,327.1    "/><polygon class="st10" points="353.9,330.8 353.9,360.8 379.9,375.8 379.9,345.8    "/><polygon class="st10" points="386.4,349.6 386.4,379.6 412.4,394.6 412.4,364.6    "/><polygon class="st10" points="191.6,276.9 191.6,306.9 217.5,321.9 217.5,291.9    "/><polygon class="st10" points="224,295.7 224,325.7 250,340.7 250,310.7    "/><polygon class="st10" points="256.5,314.4 256.5,344.4 282.5,359.4 282.5,329.4    "/><polygon class="st10" points="289,333.2 289,363.2 315,378.2 315,348.2    "/><polygon class="st10" points="321.5,351.9 321.5,381.9 347.4,396.9 347.4,366.9    "/><polygon class="st10" points="353.9,370.6 353.9,400.6 379.9,415.6 379.9,385.6    "/><polygon class="st10" points="386.4,389.4 386.4,419.4 412.4,434.4 412.4,404.4    "/><g><g><path class="st10" d="M198.4,114c0.3,0.8,0.8,1.5,1.4,1.8c0.6,0.3,1.3,0.2,1.3-0.8c0-2.1-3.1-2.6-3.1-6.1       c0-1.1,0.6-2.2,2.2-1.3c0.7,0.4,1.4,1,1.8,2.1l-0.7,0.5c-0.2-0.6-0.6-1.2-1.1-1.4c-1-0.6-1.2,0.1-1.2,0.7c0,2.3,3.1,2.7,3.1,6       c0,1.7-1,2.2-2.2,1.5c-0.8-0.5-1.6-1.3-2-2.4L198.4,114z"/><path class="st10" d="M204,110.1v5.5c0,1.1,0.4,2.8,1.6,3.5c1.2,0.7,1.6-0.5,1.6-1.7v-5.5l0.9,0.5v5.7c0,2.1-1.1,2.9-2.5,2.1       c-1.4-0.8-2.5-2.9-2.5-5v-5.7L204,110.1z"/><path class="st10" d="M209.6,113.3l1.1,0.7l3.5,9.5l0,0V116l0.9,0.5v9l-1.1-0.6l-3.6-9.5l0,0v7.4l-0.9-0.5V113.3z"/></g><g><path class="st10" d="M226.8,124.4l1.3,0.7l2,8l0,0l2-5.7l1.3,0.7v9l-0.9-0.5v-7.4l0,0l-2.2,6.2l-0.6-0.3l-2.2-8.7l0,0v7.4       l-0.9-0.5V124.4z"/><path class="st10" d="M234.6,133.4c0-2.7,1.4-4,3.3-2.8c1.9,1.1,3.3,4,3.3,6.7s-1.4,4-3.3,2.8C236,139,234.6,136.1,234.6,133.4       z M240.4,136.7c0-2-0.9-4.1-2.4-5c-1.5-0.8-2.4,0.2-2.4,2.2c0,2,0.9,4.1,2.4,5C239.4,139.8,240.4,138.7,240.4,136.7z"/><path class="st10" d="M242.5,133.5l1.1,0.7l3.5,9.5l0,0v-7.4l0.9,0.5v9l-1.1-0.6l-3.6-9.5l0,0v7.4l-0.9-0.5V133.5z"/></g><g><path class="st10" d="M265.2,146.4l-2.1-1.2V144l5,2.9v1.1l-2.1-1.2v7.9l-0.9-0.5V146.4z"/><path class="st10" d="M269.8,147.9v5.5c0,1.1,0.4,2.8,1.6,3.5c1.2,0.7,1.6-0.5,1.6-1.7v-5.5l0.9,0.5v5.7c0,2.1-1.1,2.9-2.5,2.1       c-1.4-0.8-2.5-2.9-2.5-5v-5.7L269.8,147.9z"/><path class="st10" d="M275.4,151.1l4.1,2.4v1.1l-3.3-1.9v2.7l3,1.8v1.1l-3-1.8v2.9l3.4,2v1.1l-4.3-2.5V151.1z"/></g><g><path class="st10" d="M292.7,162.7l0.9,0.5l1.4,8l0,0l1.5-6.4l1,0.6l1.5,8.1l0,0l1.4-6.4l0.9,0.5l-1.9,8l-0.9-0.5l-1.6-8.3l0,0       l-1.5,6.5l-0.9-0.5L292.7,162.7z"/><path class="st10" d="M302.2,168.2l4.1,2.4v1.1l-3.3-1.9v2.7l3,1.8v1.1l-3-1.8v2.9l3.4,2v1.1l-4.3-2.5V168.2z"/><path class="st10" d="M307.6,171.3l2.2,1.3c2.7,1.6,3.4,4.8,3.4,6.5c0,2.3-1.2,3.8-3.5,2.5l-2.1-1.2V171.3z M308.4,179.7       l1.1,0.6c1.5,0.8,2.7,0.4,2.7-1.8c0-1.1-0.4-3.6-2.5-4.8l-1.3-0.8V179.7z"/></g><g><path class="st10" d="M327.8,183.8l-2.1-1.2v-1.1l5,2.9v1.1l-2.1-1.2v7.9l-0.9-0.5V183.8z"/><path class="st10" d="M331.6,184.9l0.9,0.5v3.8l3.3,1.9v-3.8l0.9,0.5v9l-0.9-0.5v-4.1l-3.3-1.9v4.1l-0.9-0.5V184.9z"/><path class="st10" d="M339.1,189.2v5.5c0,1.1,0.4,2.8,1.6,3.5c1.2,0.7,1.6-0.5,1.6-1.7V191l0.9,0.5v5.7c0,2.1-1.1,2.9-2.5,2.1       c-1.4-0.8-2.5-2.9-2.5-5v-5.7L339.1,189.2z"/></g><g><path class="st10" d="M362.3,203.6l4,2.3v1.1l-3.1-1.8v2.8l2.9,1.7v1.1l-2.9-1.7v3.9l-0.9-0.5V203.6z"/><path class="st10" d="M367.5,206.6l2.2,1.3c1.6,0.9,2,2.6,2,3.7c0,1.1-0.6,1.9-1.6,1.5l1.8,5.2l-1.1-0.6l-1.6-4.9l-1-0.6v4       l-0.9-0.5V206.6z M368.4,211.1l1.1,0.7c0.7,0.4,1.4,0.6,1.4-0.7s-0.7-1.9-1.4-2.2l-1.1-0.7V211.1z"/><path class="st10" d="M373,209.8l0.9,0.5v9l-0.9-0.5V209.8z"/></g><g><path class="st10" d="M393.6,227.6c0.3,0.8,0.8,1.5,1.4,1.8c0.6,0.3,1.3,0.2,1.3-0.8c0-2.1-3.1-2.6-3.1-6.1       c0-1.1,0.6-2.2,2.2-1.3c0.7,0.4,1.4,1,1.8,2.1l-0.7,0.5c-0.2-0.6-0.6-1.2-1.1-1.4c-1-0.6-1.2,0.1-1.2,0.7c0,2.3,3.1,2.7,3.1,6       c0,1.7-1,2.2-2.2,1.5c-0.8-0.5-1.6-1.3-2-2.4L393.6,227.6z"/><path class="st10" d="M400.4,224.4l0.8,0.5l2.7,10.6l-1-0.6l-0.6-2.6l-3-1.8l-0.6,1.9l-1-0.6L400.4,224.4z M401.9,231.1       l-1.2-4.8l0,0l-1.2,3.5L401.9,231.1z"/><path class="st10" d="M405.2,228.4l-2.1-1.2v-1.1l5,2.9v1.1l-2.1-1.2v7.9l-0.9-0.5V228.4z"/></g></g></g><g><g><linearGradient gradientUnits="userSpaceOnUse" id="SVGID_10_" x1="391.7228" x2="409.2954" y1="197.9414" y2="197.9414"><stop offset="0" style="stop-color:#D964A2"/><stop offset="7.086134e-02" style="stop-color:#D160A0"/><stop offset="0.5224" style="stop-color:#984E97"/><stop offset="0.8428" style="stop-color:#704491"/><stop offset="1" style="stop-color:#60418F"/></linearGradient><path class="st12" d="M394.1,201.8c3.3,5.6,8.9,8.4,12.4,6.3c3.6-2.1,3.8-8.3,0.5-13.9c-3.3-5.6-8.9-8.4-12.4-6.3      C391,190,390.8,196.2,394.1,201.8z"/><g><linearGradient gradientUnits="userSpaceOnUse" id="SVGID_11_" x1="378.108" x2="428.9856" y1="173.9853" y2="173.9853"><stop offset="0" style="stop-color:#3F4A9A"/><stop offset="1" style="stop-color:#8062A8"/></linearGradient><path class="st13" d="M409.2,199.9c-0.8,0.5-1.5,0.9-2.3,1.3c-3.6,1.8-7.3,2.7-10.7,2.7c-3.2,0-6.2-0.8-8.9-2.4       c-5.5-3.3-8.8-9.6-9.1-17.4c-0.2-7,1.9-14.6,6.1-21.6c9.2-15.4,24.8-22.5,35.7-16c9.9,5.9,11.9,20.7,5.2,34.9l-10-5.6       c4-9,2.9-17.1-1-19.5c-0.9-0.5-1.9-0.8-3.1-0.8c-4.9,0-11.9,4.4-16.9,12.8c-3,5-4.6,10.7-4.5,15.4c0.1,3.8,1.4,6.7,3.5,8       c2.1,1.2,5.3,1,8.7-0.7c0.6-0.3,1.2-0.7,1.8-1.1C407.9,193.6,409.3,199.6,409.2,199.9z"/></g><g><linearGradient gradientUnits="userSpaceOnUse" id="SVGID_12_" x1="380.3403" x2="410.9944" y1="170.142" y2="170.142"><stop offset="0" style="stop-color:#A4A9D6"/><stop offset="1" style="stop-color:#9E85BD"/></linearGradient><path class="st14" d="M382,193.2c-2.2-1.9-4.1-22,7.6-34.7c11.8-12.8,15.2-11.6,18.5-11.6s3.5,1.6,1.6,2.8       c-1.9,1.2-12.5,3.1-19.3,12.5c-6.8,9.4-7.8,18.4-7.6,23.4C383.1,190.6,383.2,194.3,382,193.2z"/><linearGradient gradientUnits="userSpaceOnUse" id="SVGID_13_" x1="413.3409" x2="420.6779" y1="147.7324" y2="147.7324"><stop offset="0" style="stop-color:#A4A9D6"/><stop offset="1" style="stop-color:#9E85BD"/></linearGradient><path class="st15" d="M415.1,145.9c1.6-0.1,4.7,2.1,5.5,3.2c0.8,1.1-3.8-0.6-5.5-0.3C413.4,149.2,412.2,146.2,415.1,145.9z"/></g></g><g><linearGradient gradientUnits="userSpaceOnUse" id="SVGID_14_" x1="344.0891" x2="361.6617" y1="170.6797" y2="170.6797"><stop offset="0" style="stop-color:#D964A2"/><stop offset="7.086134e-02" style="stop-color:#D160A0"/><stop offset="0.5224" style="stop-color:#984E97"/><stop offset="0.8428" style="stop-color:#704491"/><stop offset="1" style="stop-color:#60418F"/></linearGradient><path class="st16" d="M346.4,174.5c3.3,5.6,8.9,8.4,12.4,6.3c3.6-2.1,3.8-8.3,0.5-13.9c-3.3-5.6-8.9-8.4-12.4-6.3      C343.3,162.7,343.1,168.9,346.4,174.5z"/><g><linearGradient gradientUnits="userSpaceOnUse" id="SVGID_15_" x1="330.4743" x2="381.3519" y1="146.7236" y2="146.7236"><stop offset="0" style="stop-color:#3F4A9A"/><stop offset="1" style="stop-color:#8062A8"/></linearGradient><path class="st17" d="M361.5,172.6c-0.8,0.5-1.5,0.9-2.3,1.3c-3.6,1.8-7.3,2.7-10.7,2.7c-3.2,0-6.2-0.8-8.9-2.4       c-5.5-3.3-8.8-9.6-9.1-17.4c-0.2-7,1.9-14.6,6.1-21.6c9.2-15.4,24.8-22.5,35.7-16c9.9,5.9,11.9,20.7,5.2,34.9l-10-5.6       c4-9,2.9-17.1-1-19.5c-0.9-0.5-1.9-0.8-3.1-0.8c-4.9,0-11.9,4.4-16.9,12.8c-3,5-4.6,10.7-4.5,15.4c0.1,3.8,1.4,6.7,3.5,8       c2.1,1.2,5.3,1,8.7-0.7c0.6-0.3,1.2-0.7,1.8-1.1C360.2,166.4,361.6,172.3,361.5,172.6z"/></g><g><linearGradient gradientUnits="userSpaceOnUse" id="SVGID_16_" x1="332.7067" x2="363.3607" y1="142.9727" y2="142.9727"><stop offset="0" style="stop-color:#A4A9D6"/><stop offset="1" style="stop-color:#9E85BD"/></linearGradient><path class="st18" d="M334.4,166.1c-2.2-1.9-4.1-22,7.6-34.7c11.8-12.8,15.2-11.6,18.5-11.6s3.5,1.6,1.6,2.8       c-1.9,1.2-12.5,3.1-19.3,12.5c-6.8,9.4-7.8,18.4-7.6,23.4C335.5,163.4,335.6,167.1,334.4,166.1z"/><linearGradient gradientUnits="userSpaceOnUse" id="SVGID_17_" x1="365.7072" x2="373.0442" y1="120.5631" y2="120.5631"><stop offset="0" style="stop-color:#A4A9D6"/><stop offset="1" style="stop-color:#9E85BD"/></linearGradient><path class="st19" d="M367.5,118.8c1.6-0.1,4.7,2.1,5.5,3.2c0.8,1.1-3.8-0.6-5.5-0.3C365.8,122,364.6,119,367.5,118.8z"/></g></g><g><linearGradient gradientUnits="userSpaceOnUse" id="SVGID_18_" x1="294.1318" x2="311.7044" y1="141.5997" y2="141.5997"><stop offset="0" style="stop-color:#D964A2"/><stop offset="7.086134e-02" style="stop-color:#D160A0"/><stop offset="0.5224" style="stop-color:#984E97"/><stop offset="0.8428" style="stop-color:#704491"/><stop offset="1" style="stop-color:#60418F"/></linearGradient><path class="st20" d="M296.5,145.4c3.3,5.6,8.9,8.4,12.4,6.3c3.6-2.1,3.8-8.3,0.5-13.9c-3.3-5.6-8.9-8.4-12.4-6.3      C293.4,133.6,293.2,139.9,296.5,145.4z"/><g><linearGradient gradientUnits="userSpaceOnUse" id="SVGID_19_" x1="280.5171" x2="331.3946" y1="117.6436" y2="117.6436"><stop offset="0" style="stop-color:#3F4A9A"/><stop offset="1" style="stop-color:#8062A8"/></linearGradient><path class="st21" d="M311.6,143.5c-0.8,0.5-1.5,0.9-2.3,1.3c-3.6,1.8-7.3,2.7-10.7,2.7c-3.2,0-6.2-0.8-8.9-2.4       c-5.5-3.3-8.8-9.6-9.1-17.4c-0.2-7,1.9-14.6,6.1-21.6c9.2-15.4,24.8-22.5,35.7-16c9.9,5.9,11.9,20.7,5.2,34.9l-10-5.6       c4-9,2.9-17.1-1-19.5c-0.9-0.5-1.9-0.8-3.1-0.8c-4.9,0-11.9,4.4-16.9,12.8c-3,5-4.6,10.7-4.5,15.4c0.1,3.8,1.4,6.7,3.5,8       c2.1,1.2,5.3,1,8.7-0.7c0.6-0.3,1.2-0.7,1.8-1.1C310.3,137.3,311.7,143.2,311.6,143.5z"/><g><linearGradient gradientUnits="userSpaceOnUse" id="SVGID_20_" x1="282.7493" x2="313.4034" y1="113.7892" y2="113.7892"><stop offset="0" style="stop-color:#A4A9D6"/><stop offset="1" style="stop-color:#9E85BD"/></linearGradient><path class="st22" d="M284.4,136.9c-2.2-1.9-4.1-22,7.6-34.7c11.8-12.8,15.2-11.6,18.5-11.6s3.5,1.6,1.6,2.8        c-1.9,1.2-12.5,3.1-19.3,12.5c-6.8,9.4-7.8,18.4-7.6,23.4C285.5,134.2,285.6,137.9,284.4,136.9z"/><linearGradient gradientUnits="userSpaceOnUse" id="SVGID_21_" x1="315.7499" x2="323.0868" y1="91.3797" y2="91.3797"><stop offset="0" style="stop-color:#A4A9D6"/><stop offset="1" style="stop-color:#9E85BD"/></linearGradient><path class="st23" d="M317.5,89.6c1.6-0.1,4.7,2.1,5.5,3.2s-3.8-0.6-5.5-0.3C315.8,92.8,314.6,89.9,317.5,89.6z"/></g></g></g><g><linearGradient gradientUnits="userSpaceOnUse" id="SVGID_22_" x1="248.0174" x2="265.5899" y1="114.9064" y2="114.9064"><stop offset="0" style="stop-color:#D964A2"/><stop offset="7.086134e-02" style="stop-color:#D160A0"/><stop offset="0.5224" style="stop-color:#984E97"/><stop offset="0.8428" style="stop-color:#704491"/><stop offset="1" style="stop-color:#60418F"/></linearGradient><path class="st24" d="M250.4,118.7c3.3,5.6,8.9,8.4,12.4,6.3c3.6-2.1,3.8-8.3,0.5-13.9c-3.3-5.6-8.9-8.4-12.4-6.3      C247.3,106.9,247.1,113.2,250.4,118.7z"/><g><linearGradient gradientUnits="userSpaceOnUse" id="SVGID_23_" x1="234.4026" x2="285.2802" y1="90.9502" y2="90.9502"><stop offset="0" style="stop-color:#3F4A9A"/><stop offset="1" style="stop-color:#8062A8"/></linearGradient><path class="st25" d="M265.4,116.8c-0.8,0.5-1.5,0.9-2.3,1.3c-3.6,1.8-7.3,2.7-10.7,2.7c-3.2,0-6.2-0.8-8.9-2.4       c-5.5-3.3-8.8-9.6-9.1-17.4c-0.2-7,1.9-14.6,6.1-21.6c9.2-15.4,24.8-22.5,35.7-16c9.9,5.9,11.9,20.7,5.2,34.9l-10-5.6       c4-9,2.9-17.1-1-19.5c-0.9-0.5-1.9-0.8-3.1-0.8c-4.9,0-11.9,4.4-16.9,12.8c-3,5-4.6,10.7-4.5,15.4c0.1,3.8,1.4,6.7,3.5,8       c2.1,1.2,5.3,1,8.7-0.7c0.6-0.3,1.2-0.7,1.8-1.1C264.2,110.6,265.6,116.6,265.4,116.8z"/></g><g><linearGradient gradientUnits="userSpaceOnUse" id="SVGID_24_" x1="236.6349" x2="267.2889" y1="87.2145" y2="87.2145"><stop offset="0" style="stop-color:#A4A9D6"/><stop offset="1" style="stop-color:#9E85BD"/></linearGradient><path class="st26" d="M238.3,110.3c-2.2-1.9-4.1-22,7.6-34.7C257.8,62.8,261.2,64,264.5,64s3.5,1.6,1.6,2.8       c-1.9,1.2-12.5,3.1-19.3,12.5c-6.8,9.4-7.8,18.4-7.6,23.4C239.4,107.6,239.5,111.3,238.3,110.3z"/><linearGradient gradientUnits="userSpaceOnUse" id="SVGID_25_" x1="269.6355" x2="276.9724" y1="64.8049" y2="64.8049"><stop offset="0" style="stop-color:#A4A9D6"/><stop offset="1" style="stop-color:#9E85BD"/></linearGradient><path class="st27" d="M271.4,63c1.6-0.1,4.7,2.1,5.5,3.2c0.8,1.1-3.8-0.6-5.5-0.3C269.7,66.2,268.5,63.3,271.4,63z"/></g></g><g><linearGradient gradientUnits="userSpaceOnUse" id="SVGID_26_" x1="196.3341" x2="213.9067" y1="84.9633" y2="84.9633"><stop offset="0" style="stop-color:#D964A2"/><stop offset="7.086134e-02" style="stop-color:#D160A0"/><stop offset="0.5224" style="stop-color:#984E97"/><stop offset="0.8428" style="stop-color:#704491"/><stop offset="1" style="stop-color:#60418F"/></linearGradient><path class="st28" d="M198.7,88.8c3.3,5.6,8.9,8.4,12.4,6.3c3.6-2.1,3.8-8.3,0.5-13.9c-3.3-5.6-8.9-8.4-12.4-6.3      C195.6,77,195.4,83.2,198.7,88.8z"/><g><linearGradient gradientUnits="userSpaceOnUse" id="SVGID_27_" x1="182.7194" x2="233.5515" y1="61.0072" y2="61.0072"><stop offset="0" style="stop-color:#3F4A9A"/><stop offset="1" style="stop-color:#8062A8"/></linearGradient><path class="st29" d="M213.8,86.9c-0.8,0.5-1.5,0.9-2.3,1.3c-3.6,1.8-7.3,2.7-10.7,2.7c-3.2,0-6.2-0.8-8.9-2.4       c-5.5-3.3-8.8-9.6-9.1-17.4c-0.2-7,1.9-14.6,6.1-21.6c9.2-15.4,24.8-22.5,35.7-16c9.9,5.9,11.8,20.8,5.1,35.1l-9.9-5.7       c4-9,2.9-17.2-1-19.5c-0.9-0.5-1.9-0.8-3.1-0.8c-4.9,0-11.9,4.4-16.9,12.8c-3,5-4.6,10.7-4.5,15.4c0.1,3.8,1.4,6.7,3.5,8       c2.1,1.2,5.3,1,8.7-0.7c0.6-0.3,1.2-0.7,1.8-1.1C212.5,80.7,213.9,86.6,213.8,86.9z"/></g><g><linearGradient gradientUnits="userSpaceOnUse" id="SVGID_28_" x1="184.3302" x2="214.9843" y1="56.4407" y2="56.4407"><stop offset="0" style="stop-color:#A4A9D6"/><stop offset="1" style="stop-color:#9E85BD"/></linearGradient><path class="st30" d="M186,79.5c-2.2-1.9-4.1-22,7.6-34.7c11.8-12.8,15.2-11.6,18.5-11.6s3.5,1.6,1.6,2.8s-12.5,3.1-19.3,12.5       c-6.8,9.4-7.8,18.4-7.6,23.4C187.1,76.9,187.2,80.6,186,79.5z"/><linearGradient gradientUnits="userSpaceOnUse" id="SVGID_29_" x1="217.3308" x2="224.6678" y1="34.0311" y2="34.0311"><stop offset="0" style="stop-color:#A4A9D6"/><stop offset="1" style="stop-color:#9E85BD"/></linearGradient><path class="st31" d="M219.1,32.2c1.6-0.1,4.7,2.1,5.5,3.2c0.8,1.1-3.8-0.6-5.5-0.3C217.4,35.5,216.2,32.5,219.1,32.2z"/></g></g></g><linearGradient gradientUnits="userSpaceOnUse" id="SVGID_30_" x1="178.5842" x2="384.5959" y1="243.7965" y2="243.7965"><stop offset="0" style="stop-color:#ED7BAE"/><stop offset="1" style="stop-color:#8062A8"/></linearGradient><path class="st32" d="M178.6,54.1v35.5V90v224.5l206,118.9C269.9,311.8,178.6,54.1,178.6,54.1z"/></g><path class="st33" d="M135.7,238.7l-6.3-0.7c-1.3-0.1-2-1.7-1.1-2.8l0.1-0.1c2.4-2.9,5.8-4.8,9.5-5.2l0,0c1.5-0.1,7.9,0.7,9.8,1.9   c1.6,1,4.7,9.6-0.3,9.8c-2.7,0.7-7-4.3-8.1-2.5c-0.4,0.5,0.8,2.3,0.1,4.3c-0.5,1.7-2.2,0-2.1-1.1   C137.3,240.8,135.7,238.7,135.7,238.7z"/><g><linearGradient gradientUnits="userSpaceOnUse" id="SVGID_31_" x1="334.0724" x2="425.3604" y1="338.3886" y2="338.3886"><stop offset="0" style="stop-color:#ED7BAE"/><stop offset="1" style="stop-color:#8062A8"/></linearGradient><path class="st34" d="M425.4,311.9c-20.7-32.7-53.9-48.8-75.4-36c-22.1,13.1-20.3,50.5,0.2,85c20.5,34.6,52,53.2,74.1,40.1    c0.4-0.2,0.7-0.5,1.1-0.7V311.9z"/><linearGradient gradientUnits="userSpaceOnUse" id="SVGID_32_" x1="425.3604" x2="438.3485" y1="356.1214" y2="356.1214"><stop offset="0" style="stop-color:#ED7BAE"/><stop offset="1" style="stop-color:#8062A8"/></linearGradient><path class="st35" d="M438.3,317.3c-2.9-2-6.7-2.9-11.2-2.6c-1.1,0.1-1.2-1.9-1.7-2.8v88.4c5.3-9,9.7-17.9,13-26.3V317.3z"/><g><g><linearGradient gradientUnits="userSpaceOnUse" id="SVGID_33_" x1="326.4725" x2="421.0738" y1="319.0783" y2="319.0783"><stop offset="0" style="stop-color:#C3A0CB"/><stop offset="1" style="stop-color:#7BC4A8"/></linearGradient><path class="st36" d="M407,296.7c-19.8-33.4-53.2-50.2-74.5-37.5l-6,3.5L399,383.2l5.3-3C425.6,367.5,426.8,330.1,407,296.7z"/><linearGradient gradientUnits="userSpaceOnUse" id="SVGID_34_" x1="310.3406" x2="415.8071" y1="322.6965" y2="322.6965"><stop offset="0" style="stop-color:#8E60A4"/><stop offset="1" style="stop-color:#65C1C0"/></linearGradient><path class="st37" d="M324.4,345.6c19.8,33.4,53.2,50.2,74.5,37.5c21.3-12.7,22.6-50,2.8-83.4c-19.8-33.4-53.2-50.2-74.5-37.5      C305.8,274.9,304.6,312.2,324.4,345.6z"/><path class="st38" d="M331.7,341.7c17.4,29.3,44.1,45.2,62.9,34.1c18.7-11.1,19.8-43.9,2.4-73.2c-17.4-29.3-46.7-44.1-65.5-33      C312.8,280.7,314.3,312.4,331.7,341.7z"/><linearGradient gradientUnits="userSpaceOnUse" id="SVGID_35_" x1="316.7601" x2="396.6243" y1="324.0002" y2="324.0002"><stop offset="0" style="stop-color:#693B8A"/><stop offset="1" style="stop-color:#37B3A7"/></linearGradient><path class="st39" d="M331.6,269.6c0.7-0.4,1.5-0.7,2.2-1.1c-16.7,12.3-17.1,43.6-0.4,71.8c16.7,28.2,44.4,42.9,63.2,34.1      c-0.7,0.5-1.3,1-2,1.4c-18.7,11.1-48-3.6-65.5-33C311.7,313.5,312.8,280.7,331.6,269.6z"/><g><g><linearGradient gradientUnits="userSpaceOnUse" id="SVGID_36_" x1="334.1377" x2="361.8906" y1="299.2181" y2="299.2181"><stop offset="0" style="stop-color:#C3A0CB"/><stop offset="1" style="stop-color:#7BC4A8"/></linearGradient><path class="st40" d="M359.9,323.5c0.3,0,0.6-0.1,0.9-0.2c1-0.5,1.3-1.7,0.8-2.7L337.8,276c-0.5-1-1.7-1.3-2.7-0.8        c-1,0.5-1.3,1.7-0.8,2.7l23.8,44.6C358.5,323.1,359.2,323.5,359.9,323.5z"/></g><g><linearGradient gradientUnits="userSpaceOnUse" id="SVGID_37_" x1="357.9494" x2="373.0327" y1="342.2978" y2="342.2978"><stop offset="0" style="stop-color:#C3A0CB"/><stop offset="1" style="stop-color:#7BC4A8"/></linearGradient><path class="st41" d="M371.1,365c0.2,0,0.3,0,0.5-0.1c1-0.3,1.7-1.4,1.4-2.4L361.8,321c-0.3-1.1-1.4-1.7-2.4-1.4        c-1,0.3-1.7,1.4-1.4,2.4l11.1,41.5C369.4,364.4,370.2,365,371.1,365z"/></g></g><g><linearGradient gradientUnits="userSpaceOnUse" id="SVGID_38_" x1="355.5428" x2="367.3089" y1="323.7478" y2="323.7478"><stop offset="0" style="stop-color:#C3A0CB"/><stop offset="1" style="stop-color:#7BC4A8"/></linearGradient><path class="st42" d="M365.6,320.9c-2.4-4-6.4-6-8.9-4.5l-1.2,0.7l8.7,14.4l1.1-0.6C367.8,329.4,368,324.9,365.6,320.9z"/><linearGradient gradientUnits="userSpaceOnUse" id="SVGID_39_" x1="353.6129" x2="366.2282" y1="324.3096" y2="324.3096"><stop offset="0" style="stop-color:#693B8A"/><stop offset="1" style="stop-color:#37B3A7"/></linearGradient><path class="st43" d="M355.3,327.1c2.4,4,6.4,6,8.9,4.5c2.6-1.5,2.7-6,0.3-10c-2.4-4-6.4-6-8.9-4.5       C353.1,318.6,352.9,323.1,355.3,327.1z"/></g><g><g><path class="st10" d="M361.4,290.9c0.5,0.3,0.8,0,0.8-0.6v-13.5c0-0.6-0.4-1.3-0.8-1.6c-0.5-0.3-0.8,0-0.8,0.6v13.5        C360.6,290,361,290.7,361.4,290.9z"/></g><g><path class="st10" d="M373.7,302.2c0.3,0.2,0.6,0.1,0.7-0.1l5.2-8.7c0.2-0.4,0.1-1.1-0.3-1.6c-0.4-0.5-0.9-0.6-1.1-0.3        l-5.2,8.7c-0.2,0.4-0.1,1.1,0.3,1.6C373.4,302,373.5,302.1,373.7,302.2z"/></g><g><path class="st10" d="M382.6,319c0.1,0.1,0.3,0.1,0.4,0.1l9-1.5c0.4-0.1,0.5-0.7,0.3-1.3c-0.2-0.6-0.7-1.1-1.1-1.1l-9,1.5        c-0.4,0.1-0.5,0.7-0.3,1.3C382.1,318.5,382.4,318.8,382.6,319z"/></g><g><path class="st10" d="M385.9,336.7l10.4,6c0.5,0.3,0.8,0,0.8-0.6c0-0.6-0.4-1.3-0.8-1.6l-10.4-6c-0.5-0.3-0.8,0-0.8,0.6        C385.1,335.8,385.5,336.4,385.9,336.7z"/></g><g><path class="st10" d="M391.7,362.6c0.3,0.2,0.6,0.1,0.7-0.1c0.2-0.4,0.1-1.1-0.3-1.6l-9-12c-0.4-0.5-0.9-0.6-1.1-0.3        c-0.2,0.4-0.1,1.1,0.3,1.6l9,12C391.4,362.4,391.5,362.5,391.7,362.6z"/></g><g><path class="st10" d="M378.9,371.8c0.1,0.1,0.3,0.1,0.4,0.1c0.4-0.1,0.5-0.7,0.3-1.3l-5.2-14.7c-0.2-0.6-0.7-1.1-1.1-1        c-0.4,0.1-0.5,0.7-0.3,1.3l5.2,14.7C378.3,371.3,378.6,371.6,378.9,371.8z"/></g><g><path class="st10" d="M361.4,367.8c0.5,0.3,0.8,0,0.8-0.6v-13.5c0-0.6-0.4-1.3-0.8-1.6c-0.5-0.3-0.8,0-0.8,0.6v13.5        C360.6,366.8,361,367.5,361.4,367.8z"/></g><g><path class="st10" d="M344,351.7c0.3,0.2,0.6,0.1,0.7-0.1l5.2-8.7c0.2-0.4,0.1-1.1-0.3-1.6c-0.4-0.5-0.9-0.6-1.1-0.3l-5.2,8.7        c-0.2,0.4-0.1,1.1,0.3,1.6C343.7,351.5,343.8,351.6,344,351.7z"/></g><g><path class="st10" d="M331.2,327.8c0.1,0.1,0.3,0.1,0.4,0.1l9-1.5c0.4-0.1,0.5-0.7,0.3-1.3c-0.2-0.7-0.7-1.1-1.1-1l-9,1.5        c-0.4,0.1-0.5,0.7-0.3,1.3C330.6,327.3,330.9,327.6,331.2,327.8z"/></g><g><path class="st10" d="M326.5,302.5l10.4,6c0.5,0.3,0.8,0,0.8-0.6c0-0.6-0.4-1.3-0.8-1.6l-10.4-6c-0.5-0.3-0.8,0-0.8,0.6        C325.6,301.5,326,302.2,326.5,302.5z"/></g><g><path class="st10" d="M340.2,294.6c0.3,0.2,0.6,0.1,0.7-0.1c0.2-0.4,0.1-1.1-0.3-1.6l-9-12c-0.4-0.5-0.9-0.6-1.1-0.3        c-0.2,0.4-0.1,1.1,0.3,1.6l9,12C339.9,294.3,340.1,294.5,340.2,294.6z"/></g><g><path class="st10" d="M349.2,288.1c0.1,0.1,0.3,0.1,0.4,0.1c0.4-0.1,0.5-0.7,0.3-1.3l-5.2-14.7c-0.2-0.6-0.7-1.1-1.1-1        c-0.4,0.1-0.5,0.7-0.3,1.3l5.2,14.7C348.6,287.6,348.9,288,349.2,288.1z"/></g></g></g></g></g><g><g><g><polygon class="st44" points="134.9,425.3 138.6,407.4 131,406.2 128.9,424.9     "/><path class="st45" d="M127.4,422.7c-0.5,0.1-1,0.3-1.3,0.6c-2.6,2.2-10.5,6-14.6,6.6c-4.4,0.6-4.6,2.8,1.5,2.8      c6.1,0,10.6-0.5,13.4-0.5c2.7,0.1,2,0.5,8.7,0.5c5.2,0,3.5-6.6,1.7-9.6c-0.6-0.9-1.3-1.5-2.4-1.3L127.4,422.7z"/></g><g><polygon class="st44" points="177.5,393.8 163.5,382.1 158.9,388.3 174.4,399     "/><path class="st45" d="M171.9,398.2c-0.5,1.1,0,3.1,0.2,3.5c1.2,3.2,2.1,11.9,1.3,16c-0.9,4.3,1.1,5.2,3.1-0.5      c2.1-5.8,3.1-10.2,4-12.7c1-2.5,1-1.8,3.4-8.1c1.2-3.2-3.8-5.9-7.3-5.2c-1.1,0.2-1.4,0.4-2,1.9      C174,394.4,172.4,397.1,171.9,398.2z"/></g><path class="st46" d="M131.9,145.7c-2.6-2.2-6.5-1.8-8.6,0.8c-5.5,6.5-11.4,12.9-16.4,17.7c-4.9,4.7-7.7,7.7-10.9,8.6     c-8.3-1.9-22.9-23-30.4-36.9c0-0.1-0.1-0.2-0.2-0.2c-0.1-0.2-0.3-0.4-0.4-0.6c-0.1-0.1-0.2-0.3-0.3-0.4c-0.1-0.2-0.3-0.3-0.4-0.4     c-0.1-0.1-0.3-0.3-0.5-0.4c-0.2-0.1-0.3-0.2-0.5-0.3c-0.2-0.1-0.4-0.2-0.6-0.3c-0.2-0.1-0.3-0.1-0.5-0.2     c-0.2-0.1-0.4-0.1-0.7-0.2c-0.1,0-0.2-0.1-0.3-0.1c-2.9-0.7-7.4,1.2-11.4-0.3c-4.5-1.8-10.5-4.1-10-0.7c0.6,4.6,3.2,8,6.3,9.2     c3.3,1.3,12,0.3,14.8,0.8c5.8,10.3,18.1,41,33.7,43.3c0.3,0.1,0.7,0.1,1.1,0.1c4.7,0,11.4-4.1,20-12.3c5-4.8,10.7-10.9,16.9-18.4     C134.8,151.7,134.5,147.8,131.9,145.7z"/><path class="st47" d="M132.8,97.5c-8.2-4.4-9.4,11.6-6.8,16.9c2.8,5.6,11.2,10.5,13.5,6C142.5,114.3,143.8,103.4,132.8,97.5z"/><path class="st48" d="M132.7,154.3c-6.3,7.5-11.9,13.6-16.9,18.4l-8.9-8.6c5-4.8,11-11.1,16.4-17.7c2.2-2.6,6-3,8.6-0.8     C134.5,147.8,134.8,151.7,132.7,154.3z"/><path class="st49" d="M134.9,156.3c-5.2,5-10.6,10.3-15.8,15.5L106.7,160c6.3-6.3,12.2-12,16.4-16c3.4-3.3,8.8-3.1,12,0.3     C138.4,147.6,138.3,153.1,134.9,156.3z"/><path class="st46" d="M158.7,135.6c0.1,5.4-0.6,12.3-3.6,17.1c-3.7,5.9-4.5,7.1-4.5,7.3c-1.3,2.2-3.7,3.5-6.2,3.5     c-1.3,0-2.5-0.3-3.7-1c-3.4-2.1-4.6-6.5-2.5-9.9c0,0,0.6-1,4.7-7.5c0.7-1.1,1.1-3.3,1.3-5.8c0.2-3,0.1-6.7-0.4-9.7     c-0.6-4,2.1-7.6,6.1-8.2c4-0.6,7.6,2.1,8.2,6.1C158.2,128.6,158.6,131.7,158.7,135.6z"/><path class="st50" d="M176.4,147.5c-3.6,20.6-10.6,72.1-9.1,92.9h-51.5c0,0,3.1-76.5,8-95.1c0.6-2.2,2.6-3.8,4.9-3.8h42.7     C174.6,141.5,177,144.4,176.4,147.5z"/><path class="st45" d="M165.1,274c0,0,6.3-11.5,2.2-33.6h-51.5c0,0-0.7,16.8,0.5,33.6H165.1z"/><path class="st45" d="M175.6,389.1l-7.7,7.4c-3.9-1.9-10.2-6.1-17.1-11.5c-6.5-5.1-13.6-11.3-19.8-17.9c-9-9.5-16.4-19.9-17.7-29     c-3.1-20.5,2.7-68.8,3.4-74.1c0.8-5.6,6.5-8.3,12.2-7.5c5.6,0.8,11.1,6.3,10.3,11.9c-1.9,13.5-7.8,51.7-5.5,66.6     c0.1,0.7,0.3,1.5,0.6,2.4c2.3,6.8,10,17.3,19,27.8C160.6,373.9,168.8,382.5,175.6,389.1z"/><path class="st51" d="M153.2,365.4c-0.7,6.4-1.6,13.2-2.4,19.7c-6.5-5.1-13.6-11.3-19.8-17.9c0.9-9.7,1.8-18.7,2.6-24.5     c0.2-1.7,0.4-3.4,0.7-5.2C136.6,344.3,144.3,354.8,153.2,365.4z"/><path class="st45" d="M126.9,416.3c0.1-0.6,4-54.4,6.6-73.6c4.1-30.3,10.4-79,10.5-79.5c1-5.6,9.1-8.9,14.7-7.9     c5.6,1,9.4,6.3,8.4,11.9c-0.1,0.5-8.4,49.5-14.6,79.8c-1.7,21.4-13.1,69.3-13.6,71.6"/><path class="st48" d="M158.7,135.6c-3.6,2.4-7.9,3.7-12.5,3.7c-0.7,0-1.4,0-2.1-0.1c0.2-3,0.1-6.7-0.4-9.7     c-0.6-4,2.1-7.6,6.1-8.2c4-0.6,7.6,2.1,8.2,6.1C158.2,128.6,158.6,131.7,158.7,135.6z"/><path class="st46" d="M126.2,112.8c0,12.7,7,23,19.5,23c9.9,0,25.2-10.3,25.2-23c0-12.7-10.3-23-23-23     C135.2,89.8,126.2,100.1,126.2,112.8z"/><path class="st46" d="M204.6,198.3c0.2-5.2-6.5-17.7-14.1-30c-4.7-7.7-9.7-15.4-13.8-21.3c-1.9-2.8-5.7-3.5-8.5-1.6     c-2.8,1.9-3.5,5.7-1.6,8.5c4.6,6.8,9.4,14.2,13.6,21.1c5.4,8.9,9,14.8,10.6,19c-6.3,2.3-22.7,7-37.3,8.3c-1.7,0.2-3.2,1-4.2,2.2     c0,0,0,0,0,0c-0.5,0.6-4.6,5.7-6.7,12.3c-1,3.2-2.3,10.2,1,9.7c3.4-0.5,5.1-2,6.8-2.5c2.5-0.9,3-0.9,3.9-3.5     c0.8-2.5,0.7-10,1.7-11.6C202.8,204.5,204.5,202.6,204.6,198.3z"/><path class="st52" d="M136.8,418.6l-1.1-0.2c0.1-0.5,8-49.1,12.6-72.8c4.6-23.6,12.6-79.7,12.7-80.3c2.2-8,1.7-15.4,0.7-25.7     l1.1-0.1c0.8,8.5,1.7,17.3-0.7,26.1c-0.1,0.5-8.1,56.7-12.7,80.3C144.8,369.5,136.9,418.1,136.8,418.6z"/><path class="st47" d="M168.2,94.4c-6.8-6.3-12,8.9-10.8,14.6c1.3,6.2,8.2,13,11.6,9.1C173.4,113.2,177.4,102.9,168.2,94.4z"/><path class="st47" d="M163.6,98.2c-5.6,4-34.5,4.6-39.4-2.5c0,0,2.9,0.6,5.7-0.3c0,0-5.6-2.3-7.5-4.9c0,0,6.9,0.4,13.3-2.3     c6.4-2.7,19.5-6.4,27.9,0.9C172,96.3,163.6,98.2,163.6,98.2z"/><path class="st46" d="M172.4,119.5c-0.5,2.5-2,4.4-4,5.6c-2.4,1.3-5.2-0.8-4.7-3.5l1.4-7.3c0.5-2.7,4-3.6,5.7-1.5     C172.2,114.6,172.9,117.1,172.4,119.5z"/><path class="st46" d="M137.7,141.5c-1.3,4.5,3,7.1,10.4,6.1c5.2-0.7,10.8-3.1,15-6.1H137.7z"/><path class="st48" d="M190.5,168.3l-10.4,6.6c-4.2-6.8-9-14.3-13.6-21.1c-1.9-2.8-1.2-6.6,1.6-8.5c2.8-1.9,6.6-1.2,8.5,1.6     C180.8,152.9,185.8,160.6,190.5,168.3z"/><path class="st50" d="M164.6,155c4.2,5.9,8.4,12.2,12.5,18.3l14.4-9.2c-5-7.4-9.6-14.1-12.9-18.9c-2.7-3.8-8-4.8-11.8-2.1     C162.9,145.9,162,151.2,164.6,155z"/><rect class="st52" height="34.8" width="1.1" x="139.6" y="239.6"/><path class="st52" d="M140.1,268.7c-3.2,0-5.9-2.6-5.9-5.9v-23.2h1.1v23.2c0,2.7,2.2,4.8,4.8,4.8V268.7z"/></g><g><rect class="st53" height="25.9" transform="matrix(0.8873 0.4611 -0.4611 0.8873 57.356 -12.793)" width="25.9" x="41.9" y="98"/><polygon class="st53" points="33.4,121 29.1,118.8 31.3,114.5 33.2,115.5 32,117.9 34.3,119.1    "/><polygon class="st53" points="78.3,107.5 76.4,106.6 77.7,104.2 75.3,102.9 76.3,101 80.5,103.3    "/><rect class="st50" height="11.4" transform="matrix(0.9985 -5.479052e-02 5.479052e-02 0.9985 -6.3836 4.1558)" width="16.1" x="64.5" y="112.8"/><rect class="st54" height="8.8" transform="matrix(0.8232 0.5678 -0.5678 0.8232 62.7451 -19.5059)" width="8.8" x="58.3" y="86.6"/></g></g><g><g><linearGradient gradientUnits="userSpaceOnUse" id="SVGID_40_" x1="19.7371" x2="200.2025" y1="268.1964" y2="268.1964"><stop offset="0" style="stop-color:#F3934B"/><stop offset="1" style="stop-color:#FCC039"/></linearGradient><path class="st55" d="M197,217.3c-4.5-7.7-12.2-11.5-17.1-8.6L19.7,301l16.6,27.6l160-92.3C201.2,233.5,201.5,225,197,217.3z"/><linearGradient gradientUnits="userSpaceOnUse" id="SVGID_41_" x1="29.3583" x2="200.193" y1="274.776" y2="274.776"><stop offset="0" style="stop-color:#F3934B"/><stop offset="1" style="stop-color:#FCC039"/></linearGradient><path class="st56" d="M36.4,328.7l160-92.3c4.1-2.5,5-9,2.4-15.5L29.4,317L36.4,328.7z"/><path class="st57" d="M19.3,320.1c4.5,7.7,12.2,11.5,17.1,8.6c4.9-2.9,5.2-11.5,0.6-19.1c-4.5-7.7-12.2-11.5-17.1-8.6     C15,303.8,14.7,312.4,19.3,320.1z"/><path class="st58" d="M43,291c6.9-4.1,112.5-65.2,120.6-69.7c8.1-4.5,11.5-6.9,17-5.2c5.4,1.7-28.5,17.5-32.4,21.1     c-3.9,3.5-79.1,41.4-88.2,48.3C50.8,292.2,37.8,294,43,291z"/></g><g><linearGradient gradientUnits="userSpaceOnUse" id="SVGID_42_" x1="19.7371" x2="51.9172" y1="311.0067" y2="311.0067"><stop offset="0" style="stop-color:#3F4A9A"/><stop offset="1" style="stop-color:#8062A8"/></linearGradient><path class="st59" d="M48.7,302.9c-4.5-7.7-12.2-11.5-17.1-8.6L19.7,301l16.6,27.6l11.7-6.6C52.9,319.1,53.2,310.6,48.7,302.9z"/><path class="st60" d="M36.4,328.7l11.7-6.6c4.4-2.6,5.1-9.7,1.9-16.7L29.4,317L36.4,328.7z"/></g><linearGradient gradientUnits="userSpaceOnUse" id="SVGID_43_" x1="6" x2="41.874" y1="317.1949" y2="317.1949"><stop offset="0" style="stop-color:#ED7BAE"/><stop offset="1" style="stop-color:#D93E6E"/></linearGradient><path class="st61" d="M38.6,308.6c-4.5-7.7-12.2-11.5-17.1-8.6L10,306.6c0,0-0.1,0-0.1,0c0,0,0,0-0.1,0l-0.1,0.1l0,0    c-4.7,3-5,11.4-0.5,19c4.5,7.7,12.2,11.5,17.1,8.6l11.7-6.6C42.9,324.8,43.2,316.3,38.6,308.6z"/><linearGradient gradientUnits="userSpaceOnUse" id="SVGID_44_" x1="7.3099" x2="41.8662" y1="322.967" y2="322.967"><stop offset="0" style="stop-color:#ED7BAE"/><stop offset="1" style="stop-color:#D93E6E"/></linearGradient><path class="st62" d="M26.3,334.4l11.7-6.6c4.4-2.6,5.1-9.7,1.9-16.7l-12.5,7.1c-2.6,1.5-5.5,2.1-8.5,1.8l-11.6-1    C11.2,332.7,21,336.4,26.3,334.4z"/><path class="st63" d="M197,217.3c0.7,1.2,1.2,2.4,1.7,3.5l35.9-24.5c-0.1-0.1-0.1-0.3-0.2-0.4c-0.4-0.4-1-0.5-1.3-0.4l-49.8,12.2    C187.8,207.7,193.4,211.3,197,217.3z"/><path class="st64" d="M198.6,234.2l36-37c0.1-0.2,0.1-0.5-0.1-0.8l-35.9,24.5C200.7,226,200.7,231,198.6,234.2z"/><path class="st65" d="M191.8,206.8c0,0,34.3-9.5,35.7-9.5c1.4,0.1-2.5,1.6-4,2c-1.5,0.5-24.2,6.2-27,7.4    C193.8,208,190.6,207.1,191.8,206.8z"/><path class="st11" d="M237,194.9c0.1,0,0.1-0.2,0-0.3c-0.1-0.1-0.2-0.2-0.2-0.1c0,0,0,0,0,0l0,0l-3.7,1c0.3-0.1,1,0,1.3,0.4    c0.3,0.4,0.5,1,0.3,1.2L237,194.9z"/><linearGradient gradientUnits="userSpaceOnUse" id="SVGID_45_" x1="8.066" x2="27.4683" y1="320.6976" y2="320.6976"><stop offset="0" style="stop-color:#ED7BAE"/><stop offset="1" style="stop-color:#D93E6E"/></linearGradient><path class="st66" d="M10.7,324.9c3.6,6.1,9.8,9.2,13.7,6.9s4.2-9.2,0.5-15.3s-9.8-9.2-13.7-6.9S7,318.8,10.7,324.9z"/></g></g></svg>